<svg width="143.958" height="14.948" viewBox="0 0 143.958 14.948" xmlns="http://www.w3.org/2000/svg"><g id="svgGroup" stroke-linecap="round" fill-rule="nonzero" font-size="9pt" stroke="#000000" stroke-width="0.5" fill="#f51493" style="stroke:#000000;stroke-width:0.5;fill:#f51493"><path d="M 20.72 11.341 L 19.469 11.3 L 18.778 11.32 Q 18.512 11.341 18.238 11.341 A 0.524 0.524 0 0 1 17.582 10.835 Q 17.582 10.589 17.787 10.452 A 1.014 1.014 0 0 1 18.354 10.315 L 18.942 10.315 L 18.942 2.099 Q 18.942 1.688 18.778 1.688 A 0.634 0.634 0 0 0 18.655 1.702 L 18.491 1.743 A 1.612 1.612 0 0 1 18.177 1.777 A 0.512 0.512 0 0 1 17.575 1.224 A 0.463 0.463 0 0 1 17.767 0.851 Q 17.958 0.697 18.358 0.66 A 3.553 3.553 0 0 0 18.949 0.567 L 19.257 0.479 A 0.993 0.993 0 0 1 19.523 0.444 A 0.569 0.569 0 0 1 20.146 1.107 L 20.146 7.595 A 6.784 6.784 0 0 0 22.688 6.077 Q 23.051 5.735 23.297 5.366 L 22.518 5.407 Q 22.189 5.407 22.001 5.264 A 0.454 0.454 0 0 1 21.813 4.884 Q 21.813 4.648 22.012 4.505 Q 22.21 4.361 22.579 4.361 L 23.987 4.416 L 25.184 4.334 Q 25.546 4.334 25.707 4.484 A 0.486 0.486 0 0 1 25.867 4.854 A 0.564 0.564 0 0 1 25.149 5.373 L 24.931 5.373 A 3.826 3.826 0 0 1 24.63 5.359 Q 24.028 6.323 22.805 7.253 A 11.98 11.98 0 0 1 24.062 8.941 L 24.876 10.315 L 25.341 10.315 Q 26.202 10.315 26.202 10.855 A 0.444 0.444 0 0 1 26.038 11.194 Q 25.874 11.341 25.607 11.341 L 24.288 11.3 L 23.598 11.32 Q 23.331 11.341 22.989 11.341 A 0.524 0.524 0 0 1 22.333 10.835 Q 22.333 10.589 22.538 10.452 A 1.014 1.014 0 0 1 23.105 10.315 L 23.57 10.315 A 14.85 14.85 0 0 0 21.896 7.861 A 7.444 7.444 0 0 1 20.146 8.641 L 20.146 10.315 L 20.453 10.315 Q 21.314 10.315 21.314 10.855 A 0.444 0.444 0 0 1 21.15 11.194 Q 20.986 11.341 20.72 11.341 Z M 30.044 11.341 L 28.793 11.3 L 28.103 11.32 Q 27.836 11.341 27.563 11.341 A 0.524 0.524 0 0 1 26.906 10.835 Q 26.906 10.589 27.111 10.452 A 1.014 1.014 0 0 1 27.679 10.315 L 28.267 10.315 L 28.267 2.099 Q 28.267 1.688 28.103 1.688 A 0.634 0.634 0 0 0 27.979 1.702 L 27.815 1.743 A 1.612 1.612 0 0 1 27.501 1.777 A 0.512 0.512 0 0 1 26.899 1.224 A 0.463 0.463 0 0 1 27.091 0.851 Q 27.282 0.697 27.682 0.66 A 3.553 3.553 0 0 0 28.273 0.567 L 28.581 0.479 A 0.993 0.993 0 0 1 28.848 0.444 A 0.569 0.569 0 0 1 29.47 1.107 L 29.47 7.595 A 6.784 6.784 0 0 0 32.013 6.077 Q 32.375 5.735 32.621 5.366 L 31.842 5.407 Q 31.514 5.407 31.326 5.264 A 0.454 0.454 0 0 1 31.138 4.884 Q 31.138 4.648 31.336 4.505 Q 31.534 4.361 31.903 4.361 L 33.312 4.416 L 34.508 4.334 Q 34.87 4.334 35.031 4.484 A 0.486 0.486 0 0 1 35.191 4.854 A 0.564 0.564 0 0 1 34.474 5.373 L 34.255 5.373 A 3.826 3.826 0 0 1 33.954 5.359 Q 33.353 6.323 32.129 7.253 A 11.98 11.98 0 0 1 33.387 8.941 L 34.2 10.315 L 34.665 10.315 Q 35.526 10.315 35.526 10.855 A 0.444 0.444 0 0 1 35.362 11.194 Q 35.198 11.341 34.932 11.341 L 33.612 11.3 L 32.922 11.32 Q 32.655 11.341 32.313 11.341 A 0.524 0.524 0 0 1 31.657 10.835 Q 31.657 10.589 31.862 10.452 A 1.014 1.014 0 0 1 32.43 10.315 L 32.895 10.315 A 14.85 14.85 0 0 0 31.22 7.861 A 7.444 7.444 0 0 1 29.47 8.641 L 29.47 10.315 L 29.777 10.315 Q 30.639 10.315 30.639 10.855 A 0.444 0.444 0 0 1 30.475 11.194 Q 30.311 11.341 30.044 11.341 Z M 7.109 1.75 L 7.499 2.235 A 1.118 1.118 0 0 1 7.8 2.885 A 0.476 0.476 0 0 1 7.294 3.452 A 1.087 1.087 0 0 1 6.487 2.803 A 3.398 3.398 0 0 0 5.807 1.941 A 1.023 1.023 0 0 0 5.168 1.729 A 2.849 2.849 0 0 0 2.317 3.001 A 0.832 0.832 0 0 0 2.229 3.391 Q 2.229 3.896 2.659 4.177 Q 3.09 4.457 4.218 4.566 Q 6.433 4.778 7.41 5.551 A 2.703 2.703 0 0 1 8.408 7.786 Q 8.408 8.825 7.817 9.673 A 3.84 3.84 0 0 1 6.351 10.951 A 5.491 5.491 0 0 1 3.917 11.443 A 5.531 5.531 0 0 1 3.179 11.396 Q 3.049 11.724 2.902 11.867 A 0.511 0.511 0 0 1 2.529 12.011 Q 1.955 12.011 1.904 11.464 Q 1.853 10.917 1.401 10.261 L 0.526 9.044 Q 0.116 8.463 0.058 8.271 A 1.259 1.259 0 0 1 0 7.906 A 0.503 0.503 0 0 1 0.123 7.581 A 0.437 0.437 0 0 1 0.482 7.431 Q 0.718 7.431 0.926 7.584 A 2.013 2.013 0 0 1 1.395 8.196 Q 2.017 9.297 2.481 9.707 Q 3.151 10.302 4.594 10.302 A 2.964 2.964 0 0 0 5.605 10.114 A 2.586 2.586 0 0 0 6.467 9.618 A 2.191 2.191 0 0 0 7.171 7.93 A 1.733 1.733 0 0 0 6.354 6.368 A 6.168 6.168 0 0 0 3.712 5.674 A 2.445 2.445 0 0 1 0.882 3.548 A 2.07 2.07 0 0 1 1.593 2.099 Q 2.816 0.875 5.277 0.615 A 1.284 1.284 0 0 1 5.264 0.4 A 0.362 0.362 0 0 1 5.417 0.13 A 0.513 0.513 0 0 1 5.756 0 A 0.563 0.563 0 0 1 6.132 0.178 A 2.475 2.475 0 0 1 6.573 0.872 A 4.719 4.719 0 0 0 7.109 1.75 Z M 59.705 11.341 L 58.44 11.3 A 8.846 8.846 0 0 0 58.044 11.307 L 57.743 11.32 Q 57.483 11.341 57.193 11.341 Q 56.902 11.341 56.725 11.194 A 0.484 0.484 0 0 1 56.547 10.801 A 0.484 0.484 0 0 1 56.755 10.397 A 0.903 0.903 0 0 1 57.313 10.24 L 57.859 10.24 L 57.859 1.894 A 4.373 4.373 0 0 1 57.056 1.996 Q 56.766 1.996 56.554 1.842 A 0.431 0.431 0 0 1 56.342 1.497 A 0.676 0.676 0 0 1 57.049 0.8 Q 57.757 0.711 59.134 0.711 A 41.421 41.421 0 0 1 61.141 0.745 Q 64.586 0.909 65.358 3.021 Q 65.557 3.575 65.557 4.245 A 3.274 3.274 0 0 1 64.753 6.494 A 3.938 3.938 0 0 1 62.467 7.69 A 8.641 8.641 0 0 0 63.561 9.215 A 3.23 3.23 0 0 0 65.133 10.179 A 1.095 1.095 0 0 1 66.015 10.664 A 0.988 0.988 0 0 1 66.049 10.951 Q 66.049 11.129 65.871 11.286 A 0.739 0.739 0 0 1 65.365 11.443 Q 64.641 11.443 64.087 11.115 A 6.327 6.327 0 0 1 62.487 9.816 A 9.6 9.6 0 0 1 61.25 7.82 L 59.097 7.82 L 59.097 10.24 L 59.575 10.24 A 1.027 1.027 0 0 1 60.245 10.408 A 0.464 0.464 0 0 1 60.437 10.746 A 0.594 0.594 0 0 1 59.705 11.341 Z M 59.097 1.784 L 59.097 6.809 L 60.437 6.809 A 3.578 3.578 0 0 0 64.066 5.394 Q 64.265 4.929 64.265 4.32 A 2.193 2.193 0 0 0 62.487 1.989 A 10.981 10.981 0 0 0 59.931 1.771 A 17.295 17.295 0 0 0 59.097 1.784 Z M 137.218 11.3 L 135.919 11.341 A 0.524 0.524 0 0 1 135.263 10.835 Q 135.263 10.589 135.468 10.452 A 1.014 1.014 0 0 1 136.035 10.315 L 136.644 10.315 L 136.644 5.858 Q 136.644 5.448 136.466 5.448 A 0.919 0.919 0 0 0 136.213 5.496 A 1.328 1.328 0 0 1 135.83 5.544 A 0.598 0.598 0 0 1 135.434 5.4 Q 135.263 5.257 135.263 5.011 A 0.647 0.647 0 0 1 136.001 4.416 A 4.624 4.624 0 0 0 136.729 4.296 A 2.48 2.48 0 0 1 137.327 4.211 Q 137.826 4.211 137.826 4.867 L 137.826 5.763 A 2.44 2.44 0 0 1 138.79 4.686 Q 139.46 4.266 140.205 4.266 A 2.316 2.316 0 0 1 142.085 4.936 A 2.746 2.746 0 0 1 142.639 6.74 L 142.639 10.315 L 143.097 10.315 Q 143.958 10.315 143.958 10.855 A 0.444 0.444 0 0 1 143.794 11.194 A 0.839 0.839 0 0 1 143.233 11.341 L 142.03 11.3 L 140.731 11.341 A 0.524 0.524 0 0 1 140.075 10.835 Q 140.075 10.589 140.28 10.452 A 1.014 1.014 0 0 1 140.848 10.315 L 141.442 10.315 L 141.442 7.185 Q 141.442 5.749 140.718 5.462 Q 140.465 5.359 140.109 5.359 A 2.147 2.147 0 0 0 138.711 5.92 A 2.669 2.669 0 0 0 137.826 7.342 L 137.826 10.315 L 138.284 10.315 Q 139.146 10.315 139.146 10.855 A 0.444 0.444 0 0 1 138.981 11.194 A 0.839 0.839 0 0 1 138.421 11.341 L 137.218 11.3 Z M 81.218 7.075 L 81.218 11.279 A 3.994 3.994 0 0 1 80.377 13.956 A 2.796 2.796 0 0 1 78.135 14.943 Q 76.986 14.943 76.316 14.438 Q 75.646 13.932 75.646 13.187 A 1.411 1.411 0 0 1 75.934 12.288 Q 76.221 11.922 76.672 11.922 Q 76.938 11.922 77.161 12.1 A 0.497 0.497 0 0 1 77.383 12.482 Q 77.383 12.688 77.314 12.776 Q 77.246 12.865 77.167 12.94 A 1.34 1.34 0 0 1 76.993 13.081 Q 76.897 13.146 76.897 13.255 Q 76.897 13.508 77.195 13.672 A 1.754 1.754 0 0 0 78.032 13.836 A 1.78 1.78 0 0 0 79.519 13.19 Q 80.028 12.544 80.028 11.368 L 80.028 10.76 Q 79.27 11.443 78.21 11.443 A 3.248 3.248 0 0 1 75.838 10.493 Q 74.874 9.543 74.874 7.919 A 3.55 3.55 0 0 1 75.899 5.281 Q 76.925 4.266 78.504 4.266 A 3.239 3.239 0 0 1 79.96 4.587 A 1.675 1.675 0 0 1 80.336 4.833 A 1.03 1.03 0 0 1 81.286 4.266 Q 81.915 4.266 81.915 4.86 Q 81.915 5.147 81.638 5.329 Q 81.361 5.51 81.29 5.834 Q 81.218 6.159 81.218 7.075 Z M 80.028 9.57 L 80.028 6.077 A 1.401 1.401 0 0 1 80.042 5.879 A 2.577 2.577 0 0 0 78.388 5.318 A 2.142 2.142 0 0 0 76.754 6.063 A 2.463 2.463 0 0 0 76.07 7.779 A 2.706 2.706 0 0 0 76.692 9.7 A 2.136 2.136 0 0 0 78.326 10.363 A 2.17 2.17 0 0 0 80.028 9.57 Z M 90.651 11.443 Q 90.057 11.443 89.503 11.348 A 0.77 0.77 0 0 1 88.915 11.84 A 0.372 0.372 0 0 1 88.478 11.437 A 1.284 1.284 0 0 0 88.296 10.773 A 11.093 11.093 0 0 0 87.979 10.261 Q 87.521 9.577 87.521 9.304 Q 87.521 9.03 87.678 8.9 A 0.534 0.534 0 0 1 88.026 8.771 Q 88.402 8.771 88.707 9.369 A 1.667 1.667 0 0 0 89.428 10.165 Q 89.845 10.363 90.74 10.363 Q 92.06 10.363 92.456 9.611 A 1.011 1.011 0 0 0 92.579 9.119 Q 92.579 8.586 92.114 8.364 Q 91.649 8.142 90.672 8.08 A 6.375 6.375 0 0 1 89.229 7.868 A 1.678 1.678 0 0 1 87.876 6.241 A 1.635 1.635 0 0 1 88.631 4.946 A 3.596 3.596 0 0 1 90.843 4.368 A 3.509 3.509 0 0 1 91.458 4.423 Q 91.39 4.231 91.39 4.102 A 0.335 0.335 0 0 1 91.506 3.859 Q 91.622 3.746 91.796 3.746 Q 91.971 3.746 92.066 3.835 Q 92.162 3.924 92.285 4.167 Q 92.408 4.409 92.757 4.857 A 4.971 4.971 0 0 1 93.191 5.472 A 0.779 0.779 0 0 1 93.276 5.831 Q 93.276 6.022 93.157 6.152 A 0.411 0.411 0 0 1 92.839 6.282 Q 92.463 6.282 92.162 5.783 A 0.778 0.778 0 0 0 91.725 5.435 A 3.565 3.565 0 0 0 90.727 5.339 A 2.199 2.199 0 0 0 89.588 5.595 A 0.724 0.724 0 0 0 89.161 6.2 A 0.526 0.526 0 0 0 89.38 6.686 Q 89.783 6.945 90.638 6.993 A 5.235 5.235 0 0 1 93.02 7.554 A 1.531 1.531 0 0 1 93.762 8.941 A 2.152 2.152 0 0 1 92.859 10.784 A 3.639 3.639 0 0 1 90.651 11.443 Z M 10.186 8.982 L 10.186 5.913 A 0.308 0.308 0 0 0 10.008 5.517 L 9.502 5.599 A 0.518 0.518 0 0 1 8.894 5.038 Q 8.894 4.539 9.55 4.478 A 3.484 3.484 0 0 0 10.158 4.382 L 10.507 4.3 A 1.532 1.532 0 0 1 10.876 4.266 A 0.425 0.425 0 0 1 11.245 4.45 A 0.801 0.801 0 0 1 11.375 4.922 L 11.375 8.538 Q 11.375 9.912 12.065 10.233 A 1.413 1.413 0 0 0 12.66 10.35 A 1.593 1.593 0 0 0 13.856 9.721 A 3.594 3.594 0 0 0 14.636 8.183 L 14.636 5.913 A 0.689 0.689 0 0 0 14.588 5.585 Q 14.54 5.517 14.451 5.517 L 13.973 5.599 A 0.518 0.518 0 0 1 13.364 5.038 Q 13.364 4.539 14.034 4.478 Q 14.39 4.443 14.615 4.389 L 14.957 4.3 A 1.462 1.462 0 0 1 15.323 4.266 A 0.419 0.419 0 0 1 15.692 4.45 Q 15.818 4.635 15.818 4.922 L 15.818 8.641 Q 15.818 9.926 16.133 10.22 A 0.791 0.791 0 0 0 16.386 10.37 Q 16.659 10.479 16.659 10.801 A 0.626 0.626 0 0 1 15.897 11.443 A 1.109 1.109 0 0 1 14.813 10.685 Q 14.697 10.418 14.656 10.056 A 2.337 2.337 0 0 1 12.387 11.443 A 2.488 2.488 0 0 1 11.423 11.259 A 2.195 2.195 0 0 1 10.186 8.982 Z M 104.467 11.341 L 102.696 11.3 Q 102.389 11.3 102.245 11.307 L 101.944 11.32 Q 101.603 11.341 101.343 11.341 A 0.528 0.528 0 0 1 100.68 10.835 Q 100.68 10.589 100.888 10.452 A 1.003 1.003 0 0 1 101.445 10.315 L 102.061 10.315 L 102.061 5.858 Q 102.061 5.448 101.883 5.448 A 1.092 1.092 0 0 0 101.626 5.496 A 1.472 1.472 0 0 1 101.237 5.544 A 0.584 0.584 0 0 1 100.851 5.4 Q 100.68 5.257 100.68 5.011 A 0.647 0.647 0 0 1 101.418 4.416 A 4.216 4.216 0 0 0 102.167 4.293 A 2.072 2.072 0 0 1 102.73 4.211 Q 103.243 4.211 103.243 4.867 L 103.243 5.92 Q 103.776 4.744 104.993 4.382 A 2.715 2.715 0 0 1 105.772 4.266 A 1.879 1.879 0 0 1 106.952 4.611 A 1.173 1.173 0 0 1 107.399 5.599 A 1.788 1.788 0 0 1 107.174 6.583 A 0.69 0.69 0 0 1 106.572 6.925 A 0.497 0.497 0 0 1 105.984 6.392 A 0.634 0.634 0 0 1 106.005 6.214 L 106.06 6.063 A 1.022 1.022 0 0 0 106.121 5.715 A 0.507 0.507 0 0 0 105.458 5.325 A 1.747 1.747 0 0 0 104.163 6.077 Q 103.53 6.829 103.243 8.06 L 103.243 10.315 L 104.351 10.315 Q 105.226 10.315 105.226 10.855 A 0.44 0.44 0 0 1 105.058 11.194 A 0.907 0.907 0 0 1 104.467 11.341 Z M 113.647 7.554 L 113.647 6.802 A 1.252 1.252 0 0 0 112.745 5.421 Q 112.424 5.325 111.884 5.325 Q 110.729 5.325 110.551 5.94 Q 110.441 6.269 110.161 6.412 Q 110.038 6.474 109.881 6.474 Q 109.231 6.474 109.231 5.776 A 1.282 1.282 0 0 1 110.014 4.724 Q 110.797 4.266 112 4.266 A 2.528 2.528 0 0 1 114.632 5.708 A 3.101 3.101 0 0 1 114.83 6.87 L 114.83 8.641 A 6.587 6.587 0 0 0 114.905 9.888 A 0.687 0.687 0 0 0 115.186 10.336 Q 115.548 10.568 115.548 10.876 A 0.576 0.576 0 0 1 114.833 11.443 Q 114.119 11.443 113.805 10.541 A 3.08 3.08 0 0 1 111.31 11.443 A 2.939 2.939 0 0 1 109.46 10.91 A 1.73 1.73 0 0 1 108.773 9.468 Q 108.773 7.957 110.448 7.499 Q 111.016 7.349 111.915 7.349 A 7.231 7.231 0 0 1 113.647 7.554 Z M 113.647 9.481 L 113.647 8.497 A 10.595 10.595 0 0 0 111.682 8.285 A 1.955 1.955 0 0 0 110.417 8.624 A 0.987 0.987 0 0 0 110.011 9.393 A 0.844 0.844 0 0 0 110.387 10.1 Q 110.763 10.377 111.439 10.377 Q 112.827 10.377 113.647 9.481 Z M 72.632 9.188 Q 73.233 9.188 73.233 9.728 A 1.072 1.072 0 0 1 73.045 10.278 Q 72.857 10.582 72.495 10.842 A 3.751 3.751 0 0 1 70.277 11.443 A 3.395 3.395 0 0 1 67.901 10.521 A 3.397 3.397 0 0 1 67.102 9.393 A 3.547 3.547 0 0 1 66.801 7.923 Q 66.801 6.364 67.826 5.315 A 3.462 3.462 0 0 1 70.41 4.266 A 3.129 3.129 0 0 1 72.471 4.898 Q 73.233 5.53 73.233 6.453 A 1.506 1.506 0 0 1 72.488 7.831 A 6.007 6.007 0 0 1 69.658 8.285 A 47.372 47.372 0 0 1 68.018 8.244 A 2.211 2.211 0 0 0 68.838 9.833 A 2.375 2.375 0 0 0 70.294 10.363 A 3.473 3.473 0 0 0 71.494 10.196 Q 71.935 10.028 72.129 9.608 Q 72.324 9.188 72.632 9.188 Z M 68.045 7.212 L 68.517 7.226 Q 68.749 7.232 70.007 7.232 A 4.198 4.198 0 0 0 71.654 7.027 A 0.664 0.664 0 0 0 72.044 6.405 A 0.904 0.904 0 0 0 71.572 5.667 Q 71.101 5.346 70.526 5.346 A 2.588 2.588 0 0 0 68.872 5.858 A 2.265 2.265 0 0 0 68.045 7.212 Z M 46.915 2.475 L 46.854 4.416 L 48.583 4.368 Q 48.986 4.368 49.15 4.515 A 0.464 0.464 0 0 1 49.314 4.874 A 0.492 0.492 0 0 1 49.13 5.25 A 0.818 0.818 0 0 1 48.573 5.414 A 21.414 21.414 0 0 1 47.537 5.38 L 46.854 5.359 L 46.854 8.641 A 3.482 3.482 0 0 0 47 9.939 A 0.755 0.755 0 0 0 47.294 10.288 A 1.114 1.114 0 0 0 47.742 10.356 A 0.832 0.832 0 0 0 48.31 10.114 A 3.219 3.219 0 0 1 48.703 9.792 A 0.614 0.614 0 0 1 49.031 9.714 A 0.441 0.441 0 0 1 49.373 9.871 A 0.537 0.537 0 0 1 49.513 10.24 Q 49.513 10.685 48.956 11.064 A 2.05 2.05 0 0 1 47.783 11.443 A 2.091 2.091 0 0 1 46.187 10.886 A 2.056 2.056 0 0 1 45.664 9.42 L 45.664 5.407 A 6.152 6.152 0 0 1 45.141 5.428 Q 44.857 5.428 44.676 5.277 A 0.486 0.486 0 0 1 44.495 4.884 A 0.449 0.449 0 0 1 44.676 4.505 A 0.716 0.716 0 0 1 45.121 4.368 A 10.747 10.747 0 0 1 45.657 4.382 A 67.25 67.25 0 0 1 45.644 3.849 L 45.616 3.247 A 25.28 25.28 0 0 0 45.599 2.714 A 8.836 8.836 0 0 1 45.589 2.406 Q 45.589 2.058 45.78 1.887 Q 45.972 1.716 46.259 1.716 Q 46.915 1.716 46.915 2.475 Z M 97.036 2.475 L 96.975 4.416 L 98.704 4.368 Q 99.107 4.368 99.271 4.515 A 0.464 0.464 0 0 1 99.436 4.874 A 0.492 0.492 0 0 1 99.251 5.25 A 0.818 0.818 0 0 1 98.694 5.414 A 21.414 21.414 0 0 1 97.658 5.38 L 96.975 5.359 L 96.975 8.641 A 3.482 3.482 0 0 0 97.122 9.939 A 0.755 0.755 0 0 0 97.416 10.288 A 1.114 1.114 0 0 0 97.863 10.356 A 0.832 0.832 0 0 0 98.431 10.114 A 3.219 3.219 0 0 1 98.824 9.792 A 0.614 0.614 0 0 1 99.152 9.714 A 0.441 0.441 0 0 1 99.494 9.871 A 0.537 0.537 0 0 1 99.634 10.24 Q 99.634 10.685 99.077 11.064 A 2.05 2.05 0 0 1 97.904 11.443 A 2.091 2.091 0 0 1 96.308 10.886 A 2.056 2.056 0 0 1 95.785 9.42 L 95.785 5.407 A 6.152 6.152 0 0 1 95.262 5.428 Q 94.979 5.428 94.797 5.277 A 0.486 0.486 0 0 1 94.616 4.884 A 0.449 0.449 0 0 1 94.797 4.505 A 0.716 0.716 0 0 1 95.242 4.368 A 10.747 10.747 0 0 1 95.778 4.382 A 67.25 67.25 0 0 1 95.765 3.849 L 95.737 3.247 A 25.28 25.28 0 0 0 95.72 2.714 A 8.836 8.836 0 0 1 95.71 2.406 Q 95.71 2.058 95.901 1.887 Q 96.093 1.716 96.38 1.716 Q 97.036 1.716 97.036 2.475 Z M 119.157 2.475 L 119.096 4.416 L 120.825 4.368 Q 121.229 4.368 121.393 4.515 A 0.464 0.464 0 0 1 121.557 4.874 A 0.492 0.492 0 0 1 121.372 5.25 A 0.818 0.818 0 0 1 120.815 5.414 A 21.414 21.414 0 0 1 119.779 5.38 L 119.096 5.359 L 119.096 8.641 A 3.482 3.482 0 0 0 119.243 9.939 A 0.755 0.755 0 0 0 119.537 10.288 A 1.114 1.114 0 0 0 119.984 10.356 A 0.832 0.832 0 0 0 120.552 10.114 A 3.219 3.219 0 0 1 120.945 9.792 A 0.614 0.614 0 0 1 121.273 9.714 A 0.441 0.441 0 0 1 121.615 9.871 A 0.537 0.537 0 0 1 121.755 10.24 Q 121.755 10.685 121.198 11.064 A 2.05 2.05 0 0 1 120.025 11.443 A 2.091 2.091 0 0 1 118.429 10.886 A 2.056 2.056 0 0 1 117.906 9.42 L 117.906 5.407 A 6.152 6.152 0 0 1 117.383 5.428 Q 117.1 5.428 116.918 5.277 A 0.486 0.486 0 0 1 116.737 4.884 A 0.449 0.449 0 0 1 116.918 4.505 A 0.716 0.716 0 0 1 117.363 4.368 A 10.747 10.747 0 0 1 117.899 4.382 A 67.25 67.25 0 0 1 117.886 3.849 L 117.858 3.247 A 25.28 25.28 0 0 0 117.841 2.714 A 8.836 8.836 0 0 1 117.831 2.406 Q 117.831 2.058 118.022 1.887 Q 118.214 1.716 118.501 1.716 Q 119.157 1.716 119.157 2.475 Z M 86.372 11.341 L 85.087 11.3 Q 84.8 11.3 84.656 11.307 L 84.355 11.32 Q 84.014 11.341 83.754 11.341 A 0.528 0.528 0 0 1 83.091 10.835 Q 83.091 10.589 83.299 10.452 A 1.003 1.003 0 0 1 83.856 10.315 L 84.39 10.315 L 84.39 5.858 Q 84.39 5.448 84.212 5.448 A 1.092 1.092 0 0 0 83.956 5.496 A 1.472 1.472 0 0 1 83.566 5.544 A 0.584 0.584 0 0 1 83.18 5.4 Q 83.009 5.257 83.009 5.011 A 0.647 0.647 0 0 1 83.747 4.416 A 4.216 4.216 0 0 0 84.496 4.293 A 2.072 2.072 0 0 1 85.06 4.211 Q 85.572 4.211 85.572 4.867 L 85.572 10.315 L 86.112 10.315 Q 86.974 10.315 86.974 10.855 A 0.44 0.44 0 0 1 86.806 11.194 A 0.634 0.634 0 0 1 86.372 11.341 Z M 125.966 11.341 L 124.681 11.3 Q 124.394 11.3 124.25 11.307 L 123.949 11.32 Q 123.607 11.341 123.348 11.341 A 0.528 0.528 0 0 1 122.685 10.835 Q 122.685 10.589 122.893 10.452 A 1.003 1.003 0 0 1 123.45 10.315 L 123.983 10.315 L 123.983 5.858 Q 123.983 5.448 123.806 5.448 A 1.092 1.092 0 0 0 123.549 5.496 A 1.472 1.472 0 0 1 123.16 5.544 A 0.584 0.584 0 0 1 122.773 5.4 Q 122.603 5.257 122.603 5.011 A 0.647 0.647 0 0 1 123.341 4.416 A 4.216 4.216 0 0 0 124.089 4.293 A 2.072 2.072 0 0 1 124.653 4.211 Q 125.166 4.211 125.166 4.867 L 125.166 10.315 L 125.706 10.315 Q 126.567 10.315 126.567 10.855 A 0.44 0.44 0 0 1 126.4 11.194 A 0.634 0.634 0 0 1 125.966 11.341 Z M 37.314 5.301 A 3.323 3.323 0 0 1 39.816 4.266 A 3.295 3.295 0 0 1 42.27 5.226 Q 43.217 6.187 43.217 7.79 Q 43.217 9.393 42.229 10.418 A 3.35 3.35 0 0 1 39.707 11.443 A 3.209 3.209 0 0 1 37.246 10.452 A 3.59 3.59 0 0 1 36.319 7.899 A 3.601 3.601 0 0 1 37.314 5.301 Z M 37.509 7.824 Q 37.509 8.955 38.155 9.659 Q 38.801 10.363 39.799 10.363 A 2.087 2.087 0 0 0 41.409 9.7 A 2.508 2.508 0 0 0 42.021 7.93 A 2.328 2.328 0 0 0 40.715 5.53 Q 40.284 5.346 39.744 5.346 Q 38.712 5.346 38.11 6.019 A 2.608 2.608 0 0 0 37.509 7.824 Z M 128.205 5.301 A 3.323 3.323 0 0 1 130.707 4.266 A 3.295 3.295 0 0 1 133.161 5.226 Q 134.107 6.187 134.107 7.79 Q 134.107 9.393 133.12 10.418 A 3.35 3.35 0 0 1 130.597 11.443 A 3.209 3.209 0 0 1 128.136 10.452 A 3.59 3.59 0 0 1 127.21 7.899 A 3.601 3.601 0 0 1 128.205 5.301 Z M 128.399 7.824 Q 128.399 8.955 129.045 9.659 Q 129.691 10.363 130.689 10.363 A 2.087 2.087 0 0 0 132.299 9.7 A 2.508 2.508 0 0 0 132.911 7.93 A 2.328 2.328 0 0 0 131.605 5.53 Q 131.175 5.346 130.635 5.346 Q 129.603 5.346 129.001 6.019 A 2.608 2.608 0 0 0 128.399 7.824 Z M 85.265 2.728 A 1.411 1.411 0 0 1 84.82 2.782 A 0.752 0.752 0 0 1 84.294 2.557 Q 84.055 2.331 84.055 1.969 Q 84.055 1.606 84.304 1.367 A 0.909 0.909 0 0 1 84.96 1.128 Q 85.367 1.128 85.596 1.343 A 0.691 0.691 0 0 1 85.825 1.866 A 0.819 0.819 0 0 1 85.265 2.728 Z M 124.858 2.728 A 1.411 1.411 0 0 1 124.414 2.782 A 0.752 0.752 0 0 1 123.888 2.557 Q 123.648 2.331 123.648 1.969 Q 123.648 1.606 123.898 1.367 A 0.909 0.909 0 0 1 124.554 1.128 Q 124.961 1.128 125.19 1.343 A 0.691 0.691 0 0 1 125.419 1.866 A 0.819 0.819 0 0 1 124.858 2.728 Z"/></g></svg>