<svg width="226.22" height="23.489" viewBox="0 0 226.22 23.489" xmlns="http://www.w3.org/2000/svg"><g id="svgGroup" stroke-linecap="round" fill-rule="nonzero" font-size="9pt" stroke="#000000" stroke-width="0.5" fill="#f51493" style="stroke:#000000;stroke-width:0.5;fill:#f51493"><path d="M 32.56 17.821 L 30.594 17.757 L 29.509 17.789 Q 29.09 17.821 28.66 17.821 A 0.824 0.824 0 0 1 27.629 17.026 A 0.683 0.683 0 0 1 27.951 16.425 Q 28.273 16.21 28.843 16.21 L 29.767 16.21 L 29.767 3.298 Q 29.767 2.653 29.509 2.653 A 0.996 0.996 0 0 0 29.315 2.675 L 29.058 2.739 A 2.534 2.534 0 0 1 28.563 2.793 A 0.804 0.804 0 0 1 27.618 1.923 A 0.728 0.728 0 0 1 27.919 1.337 A 1.742 1.742 0 0 1 28.848 1.037 A 5.583 5.583 0 0 0 29.777 0.892 L 30.261 0.752 Q 30.454 0.698 30.68 0.698 Q 31.657 0.698 31.657 1.74 L 31.657 11.935 A 10.661 10.661 0 0 0 35.653 9.55 A 6.501 6.501 0 0 0 36.609 8.433 L 35.385 8.497 Q 34.869 8.497 34.574 8.271 Q 34.278 8.046 34.278 7.675 A 0.702 0.702 0 0 1 34.59 7.079 A 1.504 1.504 0 0 1 35.481 6.854 L 37.694 6.939 L 39.574 6.811 A 1.18 1.18 0 0 1 40.396 7.047 Q 40.648 7.283 40.648 7.627 Q 40.648 8.443 39.521 8.443 L 39.177 8.443 A 6.012 6.012 0 0 1 38.704 8.422 A 11.549 11.549 0 0 1 35.836 11.397 A 18.825 18.825 0 0 1 37.813 14.051 L 39.091 16.21 L 39.821 16.21 A 1.04 1.04 0 0 1 41.175 17.059 A 0.697 0.697 0 0 1 40.917 17.59 A 0.976 0.976 0 0 1 40.24 17.821 L 38.167 17.757 L 37.082 17.789 Q 36.663 17.821 36.126 17.821 A 0.824 0.824 0 0 1 35.095 17.026 A 0.683 0.683 0 0 1 35.417 16.425 Q 35.739 16.21 36.309 16.21 L 37.039 16.21 A 23.335 23.335 0 0 0 34.407 12.354 Q 32.979 13.202 31.657 13.578 L 31.657 16.21 L 32.141 16.21 A 1.04 1.04 0 0 1 33.494 17.059 A 0.697 0.697 0 0 1 33.236 17.59 A 0.976 0.976 0 0 1 32.56 17.821 Z M 47.212 17.821 L 45.246 17.757 L 44.161 17.789 Q 43.742 17.821 43.313 17.821 A 0.824 0.824 0 0 1 42.281 17.026 A 0.683 0.683 0 0 1 42.604 16.425 Q 42.926 16.21 43.495 16.21 L 44.419 16.21 L 44.419 3.298 Q 44.419 2.653 44.161 2.653 A 0.996 0.996 0 0 0 43.968 2.675 L 43.71 2.739 A 2.534 2.534 0 0 1 43.216 2.793 A 0.804 0.804 0 0 1 42.271 1.923 A 0.728 0.728 0 0 1 42.571 1.337 A 1.742 1.742 0 0 1 43.5 1.037 A 5.583 5.583 0 0 0 44.43 0.892 L 44.913 0.752 Q 45.106 0.698 45.332 0.698 Q 46.31 0.698 46.31 1.74 L 46.31 11.935 A 10.661 10.661 0 0 0 50.306 9.55 A 6.501 6.501 0 0 0 51.262 8.433 L 50.037 8.497 Q 49.521 8.497 49.226 8.271 Q 48.931 8.046 48.931 7.675 A 0.702 0.702 0 0 1 49.242 7.079 A 1.504 1.504 0 0 1 50.134 6.854 L 52.347 6.939 L 54.227 6.811 A 1.18 1.18 0 0 1 55.048 7.047 Q 55.301 7.283 55.301 7.627 Q 55.301 8.443 54.173 8.443 L 53.829 8.443 A 6.012 6.012 0 0 1 53.356 8.422 A 11.549 11.549 0 0 1 50.488 11.397 A 18.825 18.825 0 0 1 52.465 14.051 L 53.743 16.21 L 54.474 16.21 A 1.04 1.04 0 0 1 55.827 17.059 A 0.697 0.697 0 0 1 55.569 17.59 A 0.976 0.976 0 0 1 54.893 17.821 L 52.819 17.757 L 51.734 17.789 Q 51.315 17.821 50.778 17.821 A 0.824 0.824 0 0 1 49.747 17.026 A 0.683 0.683 0 0 1 50.069 16.425 Q 50.392 16.21 50.961 16.21 L 51.691 16.21 A 23.335 23.335 0 0 0 49.06 12.354 Q 47.631 13.202 46.31 13.578 L 46.31 16.21 L 46.793 16.21 A 1.04 1.04 0 0 1 48.146 17.059 A 0.697 0.697 0 0 1 47.889 17.59 A 0.976 0.976 0 0 1 47.212 17.821 Z M 11.172 2.75 L 11.784 3.513 A 1.757 1.757 0 0 1 12.257 4.533 A 0.748 0.748 0 0 1 11.462 5.425 A 1.708 1.708 0 0 1 10.194 4.404 Q 9.561 3.384 9.125 3.051 Q 8.69 2.718 8.121 2.718 A 4.861 4.861 0 0 0 3.888 4.296 A 2.991 2.991 0 0 0 3.642 4.716 A 1.308 1.308 0 0 0 3.502 5.328 A 1.394 1.394 0 0 0 4.179 6.563 A 5.89 5.89 0 0 0 6.628 7.176 A 10.593 10.593 0 0 1 11.326 8.494 A 4.361 4.361 0 0 1 11.645 8.723 A 4.248 4.248 0 0 1 13.213 12.235 Q 13.213 13.868 12.284 15.2 Q 11.354 16.532 9.979 17.209 A 8.628 8.628 0 0 1 6.155 17.982 A 8.692 8.692 0 0 1 4.995 17.907 Q 4.791 18.423 4.56 18.648 A 0.803 0.803 0 0 1 3.975 18.874 Q 3.072 18.874 2.992 18.015 A 4.113 4.113 0 0 0 2.202 16.124 L 0.827 14.212 A 5.967 5.967 0 0 1 0.091 12.998 A 1.978 1.978 0 0 1 0 12.423 Q 0 12.149 0.193 11.913 A 0.686 0.686 0 0 1 0.757 11.677 Q 1.128 11.677 1.456 11.918 A 3.164 3.164 0 0 1 2.191 12.88 Q 3.169 14.609 3.899 15.254 A 4.913 4.913 0 0 0 7.219 16.188 Q 7.992 16.188 8.809 15.893 Q 9.625 15.598 10.162 15.114 A 3.443 3.443 0 0 0 11.269 12.461 A 2.723 2.723 0 0 0 9.985 10.006 A 9.411 9.411 0 0 0 6.011 8.933 A 23.171 23.171 0 0 0 5.833 8.916 A 5.449 5.449 0 0 1 1.942 7.314 A 2.752 2.752 0 0 1 1.386 5.575 Q 1.386 4.415 2.503 3.298 A 9.322 9.322 0 0 1 8.293 0.967 A 2.018 2.018 0 0 1 8.271 0.628 Q 8.271 0.408 8.513 0.204 Q 8.755 0 9.045 0 A 0.885 0.885 0 0 1 9.636 0.279 Q 9.937 0.559 10.329 1.37 Q 10.721 2.181 11.172 2.75 Z M 93.822 17.821 L 91.835 17.757 Q 91.438 17.757 91.212 17.768 L 90.739 17.789 A 11.007 11.007 0 0 1 89.875 17.821 A 1.118 1.118 0 0 1 89.139 17.59 A 0.761 0.761 0 0 1 88.859 16.973 A 0.761 0.761 0 0 1 89.187 16.339 A 1.419 1.419 0 0 1 90.063 16.092 L 90.922 16.092 L 90.922 2.976 A 6.871 6.871 0 0 1 89.66 3.137 Q 89.203 3.137 88.87 2.895 A 0.678 0.678 0 0 1 88.537 2.353 A 1.062 1.062 0 0 1 89.649 1.257 A 28.45 28.45 0 0 1 92.925 1.117 A 65.091 65.091 0 0 1 96.078 1.171 A 8.672 8.672 0 0 1 101.375 2.828 A 4.522 4.522 0 0 1 102.706 4.748 Q 103.018 5.618 103.018 6.671 Q 103.018 8.776 101.755 10.205 Q 100.493 11.634 98.162 12.085 Q 99.204 13.804 99.881 14.48 Q 101.148 15.748 102.352 15.995 A 1.721 1.721 0 0 1 103.737 16.758 A 1.553 1.553 0 0 1 103.791 17.209 A 0.706 0.706 0 0 1 103.512 17.735 Q 103.232 17.982 102.717 17.982 Q 101.578 17.982 100.708 17.467 A 9.942 9.942 0 0 1 98.194 15.426 Q 97.238 14.309 96.25 12.289 L 92.866 12.289 L 92.866 16.092 L 93.618 16.092 A 1.615 1.615 0 0 1 94.671 16.355 A 0.73 0.73 0 0 1 94.972 16.887 Q 94.972 17.821 93.822 17.821 Z M 92.866 2.804 L 92.866 10.699 L 94.972 10.699 Q 99.73 10.699 100.676 8.476 Q 100.987 7.745 100.987 6.789 A 3.447 3.447 0 0 0 98.194 3.126 A 17.191 17.191 0 0 0 94.198 2.782 A 42.536 42.536 0 0 0 94.177 2.782 A 27.179 27.179 0 0 0 92.866 2.804 Z M 215.628 17.757 L 213.587 17.821 A 0.824 0.824 0 0 1 212.556 17.026 A 0.683 0.683 0 0 1 212.878 16.425 Q 213.2 16.21 213.77 16.21 L 214.726 16.21 L 214.726 9.206 Q 214.726 8.562 214.446 8.562 A 1.444 1.444 0 0 0 214.049 8.637 A 2.087 2.087 0 0 1 213.447 8.712 A 0.94 0.94 0 0 1 212.824 8.486 A 0.758 0.758 0 0 1 212.556 7.874 A 1.017 1.017 0 0 1 213.716 6.939 A 7.266 7.266 0 0 0 214.86 6.751 Q 215.392 6.617 215.8 6.617 A 0.821 0.821 0 0 1 216.584 7.648 L 216.584 9.056 A 3.834 3.834 0 0 1 218.099 7.364 A 4.116 4.116 0 0 1 220.322 6.703 Q 222.406 6.703 223.276 7.756 A 4.315 4.315 0 0 1 224.146 10.592 L 224.146 16.21 L 224.866 16.21 A 1.04 1.04 0 0 1 226.22 17.059 A 0.697 0.697 0 0 1 225.962 17.59 Q 225.704 17.821 225.081 17.821 L 223.19 17.757 L 221.149 17.821 A 0.824 0.824 0 0 1 220.118 17.026 A 0.683 0.683 0 0 1 220.44 16.425 Q 220.763 16.21 221.332 16.21 L 222.267 16.21 L 222.267 11.29 Q 222.267 9.034 221.128 8.583 A 2.543 2.543 0 0 0 220.172 8.422 Q 219.022 8.422 217.975 9.303 A 4.195 4.195 0 0 0 216.584 11.537 L 216.584 16.21 L 217.304 16.21 A 1.04 1.04 0 0 1 218.657 17.059 A 0.697 0.697 0 0 1 218.399 17.59 Q 218.142 17.821 217.519 17.821 L 215.628 17.757 Z M 127.628 11.118 L 127.628 17.725 A 6.276 6.276 0 0 1 126.307 21.93 A 4.394 4.394 0 0 1 122.783 23.482 A 4.636 4.636 0 0 1 119.926 22.688 Q 118.873 21.893 118.873 20.722 A 2.217 2.217 0 0 1 119.324 19.309 Q 119.775 18.734 120.484 18.734 A 1.202 1.202 0 0 1 121.252 19.014 Q 121.602 19.293 121.602 19.615 A 0.769 0.769 0 0 1 121.494 20.077 A 2.278 2.278 0 0 1 121.263 20.335 Q 121.14 20.453 120.989 20.555 Q 120.839 20.657 120.839 20.829 A 0.754 0.754 0 0 0 121.306 21.484 A 2.757 2.757 0 0 0 122.622 21.742 Q 124.158 21.742 124.958 20.727 Q 125.759 19.712 125.759 17.864 L 125.759 16.908 A 4.122 4.122 0 0 1 122.901 17.982 Q 120.688 17.982 119.174 16.489 A 5.421 5.421 0 0 1 117.659 12.445 A 5.579 5.579 0 0 1 119.271 8.298 A 5.575 5.575 0 0 1 123.363 6.703 A 5.09 5.09 0 0 1 125.651 7.208 A 2.632 2.632 0 0 1 126.242 7.595 A 1.619 1.619 0 0 1 127.735 6.703 A 0.851 0.851 0 0 1 128.724 7.638 Q 128.724 8.089 128.289 8.374 A 1.234 1.234 0 0 0 127.741 9.168 Q 127.628 9.679 127.628 11.118 Z M 125.759 15.039 L 125.759 9.55 A 2.201 2.201 0 0 1 125.78 9.238 Q 124.674 8.357 123.181 8.357 Q 121.688 8.357 120.613 9.528 A 3.871 3.871 0 0 0 119.539 12.225 A 4.252 4.252 0 0 0 120.517 15.243 Q 121.494 16.285 123.084 16.285 A 3.41 3.41 0 0 0 125.759 15.039 Z M 142.452 17.982 Q 141.518 17.982 140.647 17.832 A 1.209 1.209 0 0 1 139.724 18.605 A 0.585 0.585 0 0 1 139.036 17.972 Q 139.036 17.413 138.751 16.93 A 17.432 17.432 0 0 0 138.252 16.124 Q 137.532 15.05 137.532 14.62 A 0.775 0.775 0 0 1 137.779 13.986 Q 138.026 13.782 138.327 13.782 Q 138.918 13.782 139.396 14.722 A 2.62 2.62 0 0 0 140.529 15.974 A 5.087 5.087 0 0 0 142.592 16.285 A 2.765 2.765 0 0 0 145.288 15.104 Q 145.481 14.749 145.481 14.33 A 1.216 1.216 0 0 0 144.751 13.143 Q 144.021 12.794 142.484 12.697 Q 140.948 12.601 140.218 12.364 A 2.637 2.637 0 0 1 138.091 9.808 Q 138.091 8.68 139.278 7.772 A 5.65 5.65 0 0 1 142.753 6.864 A 5.513 5.513 0 0 1 143.72 6.95 Q 143.612 6.649 143.612 6.445 A 0.527 0.527 0 0 1 143.795 6.064 A 0.629 0.629 0 0 1 144.251 5.887 A 0.6 0.6 0 0 1 144.676 6.026 Q 144.826 6.166 145.02 6.547 A 7.553 7.553 0 0 0 145.761 7.632 Q 146.309 8.336 146.443 8.599 Q 146.577 8.862 146.577 9.163 Q 146.577 9.464 146.389 9.668 A 0.647 0.647 0 0 1 145.89 9.872 A 1.311 1.311 0 0 1 144.826 9.088 Q 144.59 8.69 144.139 8.54 Q 143.688 8.39 142.57 8.39 Q 141.453 8.39 140.782 8.792 A 1.138 1.138 0 0 0 140.11 9.743 Q 140.11 10.291 140.454 10.506 A 4.178 4.178 0 0 0 142.431 10.989 Q 145.009 11.14 146.174 11.87 Q 147.34 12.601 147.34 14.051 A 3.382 3.382 0 0 1 145.922 16.946 A 5.719 5.719 0 0 1 142.452 17.982 Z M 16.006 14.115 L 16.006 9.292 A 0.484 0.484 0 0 0 15.727 8.669 L 14.932 8.798 A 0.813 0.813 0 0 1 13.976 7.917 A 0.912 0.912 0 0 1 15.007 7.036 A 5.475 5.475 0 0 0 15.963 6.886 L 16.511 6.757 A 2.407 2.407 0 0 1 17.091 6.703 Q 17.467 6.703 17.671 6.993 A 1.259 1.259 0 0 1 17.875 7.734 L 17.875 13.417 A 2.662 2.662 0 0 0 18.96 16.081 A 2.22 2.22 0 0 0 19.895 16.264 A 2.504 2.504 0 0 0 21.774 15.275 A 5.648 5.648 0 0 0 22.999 12.858 L 22.999 9.292 A 1.082 1.082 0 0 0 22.924 8.776 A 0.246 0.246 0 0 0 22.709 8.669 L 21.957 8.798 A 0.813 0.813 0 0 1 21.001 7.917 A 0.924 0.924 0 0 1 22.054 7.036 Q 22.612 6.982 22.967 6.896 L 23.504 6.757 A 2.298 2.298 0 0 1 24.079 6.703 A 0.659 0.659 0 0 1 24.659 6.993 Q 24.857 7.283 24.857 7.734 L 24.857 13.578 A 4.126 4.126 0 0 0 25.314 16.021 A 0.661 0.661 0 0 0 25.352 16.06 A 1.244 1.244 0 0 0 25.749 16.296 A 0.661 0.661 0 0 1 26.179 16.973 A 0.984 0.984 0 0 1 24.981 17.982 A 1.743 1.743 0 0 1 23.278 16.79 A 3.441 3.441 0 0 1 23.031 15.802 Q 21.968 17.982 19.465 17.982 A 3.909 3.909 0 0 1 17.95 17.692 A 3.45 3.45 0 0 1 16.006 14.115 Z M 164.162 17.821 L 161.38 17.757 A 16.599 16.599 0 0 0 160.671 17.768 L 160.198 17.789 Q 159.661 17.821 159.253 17.821 A 0.83 0.83 0 0 1 158.211 17.026 Q 158.211 16.64 158.539 16.425 A 1.576 1.576 0 0 1 159.414 16.21 L 160.381 16.21 L 160.381 9.206 Q 160.381 8.562 160.102 8.562 A 1.717 1.717 0 0 0 159.699 8.637 A 2.313 2.313 0 0 1 159.086 8.712 A 0.918 0.918 0 0 1 158.479 8.486 A 0.758 0.758 0 0 1 158.211 7.874 A 1.017 1.017 0 0 1 159.371 6.939 A 6.625 6.625 0 0 0 160.547 6.746 Q 161.004 6.617 161.434 6.617 Q 162.239 6.617 162.239 7.648 L 162.239 9.303 Q 163.077 7.455 164.989 6.886 A 4.266 4.266 0 0 1 166.214 6.703 A 2.953 2.953 0 0 1 168.067 7.246 Q 168.771 7.788 168.771 8.798 Q 168.771 9.808 168.416 10.345 A 1.085 1.085 0 0 1 167.471 10.882 Q 166.547 10.882 166.547 10.044 A 0.997 0.997 0 0 1 166.579 9.765 L 166.665 9.528 A 1.606 1.606 0 0 0 166.762 8.98 A 0.796 0.796 0 0 0 165.72 8.368 A 2.746 2.746 0 0 0 163.684 9.55 A 7.363 7.363 0 0 0 162.239 12.665 L 162.239 16.21 L 163.979 16.21 Q 165.354 16.21 165.354 17.059 A 0.692 0.692 0 0 1 165.091 17.59 Q 164.828 17.821 164.162 17.821 Z M 178.589 11.87 L 178.589 10.688 A 1.968 1.968 0 0 0 177.171 8.519 Q 176.666 8.368 175.817 8.368 Q 174.002 8.368 173.723 9.335 A 1.228 1.228 0 0 1 173.11 10.076 Q 172.917 10.173 172.67 10.173 Q 171.649 10.173 171.649 9.077 A 2.014 2.014 0 0 1 172.879 7.423 A 6.108 6.108 0 0 1 176 6.703 A 3.972 3.972 0 0 1 180.136 8.97 Q 180.447 9.743 180.447 10.796 L 180.447 13.578 A 10.351 10.351 0 0 0 180.565 15.539 A 1.079 1.079 0 0 0 181.006 16.242 Q 181.575 16.607 181.575 17.091 Q 181.575 17.982 180.453 17.982 A 1.733 1.733 0 0 1 178.836 16.564 Q 177.654 17.982 174.915 17.982 A 4.618 4.618 0 0 1 172.009 17.145 A 2.718 2.718 0 0 1 170.93 14.878 Q 170.93 12.504 173.562 11.784 A 9.237 9.237 0 0 1 175.866 11.548 Q 177.278 11.548 178.589 11.87 Z M 178.589 14.899 L 178.589 13.353 Q 176.849 13.02 175.5 13.02 A 3.073 3.073 0 0 0 173.513 13.551 Q 172.874 14.083 172.874 14.76 A 1.327 1.327 0 0 0 173.465 15.872 Q 174.056 16.307 175.119 16.307 A 4.475 4.475 0 0 0 178.589 14.899 Z M 115.081 15.286 A 1.685 1.685 0 0 1 114.786 16.151 Q 114.49 16.629 113.921 17.037 A 5.895 5.895 0 0 1 110.435 17.982 A 5.336 5.336 0 0 1 106.702 16.532 A 5.338 5.338 0 0 1 105.445 14.76 Q 104.973 13.707 104.973 12.45 A 5.632 5.632 0 0 1 106.584 8.352 Q 108.195 6.703 110.645 6.703 A 4.917 4.917 0 0 1 113.883 7.697 A 3.06 3.06 0 0 1 115.081 10.141 Q 115.081 11.591 113.91 12.305 A 7.414 7.414 0 0 1 110.618 12.994 A 24.939 24.939 0 0 1 109.463 13.02 A 74.442 74.442 0 0 1 106.885 12.955 A 3.475 3.475 0 0 0 108.174 15.453 A 3.732 3.732 0 0 0 110.462 16.285 A 5.458 5.458 0 0 0 112.347 16.022 Q 113.04 15.759 113.346 15.098 A 0.918 0.918 0 0 1 114.136 14.437 A 0.796 0.796 0 0 1 115.081 15.286 Z M 106.928 11.333 L 107.669 11.354 A 102.94 102.94 0 0 0 109.542 11.365 A 622.191 622.191 0 0 0 110.011 11.365 A 6.596 6.596 0 0 0 112.6 11.043 A 1.043 1.043 0 0 0 113.212 10.065 A 1.42 1.42 0 0 0 112.471 8.905 A 2.855 2.855 0 0 0 110.827 8.4 Q 109.248 8.4 108.228 9.206 A 3.559 3.559 0 0 0 106.928 11.333 Z M 73.724 3.889 L 73.627 6.939 L 76.345 6.864 Q 76.979 6.864 77.236 7.095 Q 77.494 7.326 77.494 7.659 A 0.773 0.773 0 0 1 77.204 8.25 A 1.285 1.285 0 0 1 76.329 8.508 A 33.651 33.651 0 0 1 74.701 8.454 L 73.627 8.422 L 73.627 13.578 A 5.472 5.472 0 0 0 73.858 15.619 A 1.187 1.187 0 0 0 74.32 16.167 A 1.751 1.751 0 0 0 75.023 16.274 A 1.308 1.308 0 0 0 75.915 15.893 A 5.059 5.059 0 0 1 76.533 15.388 Q 76.731 15.265 77.048 15.265 Q 77.365 15.265 77.585 15.512 A 0.844 0.844 0 0 1 77.806 16.092 A 1.635 1.635 0 0 1 76.93 17.386 Q 76.055 17.982 75.088 17.982 A 3.285 3.285 0 0 1 72.58 17.107 A 3.23 3.23 0 0 1 71.758 14.803 L 71.758 8.497 Q 71.382 8.529 70.936 8.529 A 1.105 1.105 0 0 1 70.206 8.293 Q 69.921 8.057 69.921 7.675 Q 69.921 7.294 70.206 7.079 A 1.126 1.126 0 0 1 70.904 6.864 A 16.889 16.889 0 0 1 71.747 6.886 Q 71.736 6.531 71.726 6.048 L 71.683 5.103 A 39.725 39.725 0 0 0 71.656 4.265 A 13.885 13.885 0 0 1 71.64 3.781 A 1.039 1.039 0 0 1 71.94 2.965 A 1.087 1.087 0 0 1 72.692 2.696 A 0.989 0.989 0 0 1 73.724 3.889 Z M 152.485 3.889 L 152.389 6.939 L 155.106 6.864 Q 155.74 6.864 155.998 7.095 Q 156.256 7.326 156.256 7.659 A 0.773 0.773 0 0 1 155.966 8.25 A 1.285 1.285 0 0 1 155.09 8.508 A 33.651 33.651 0 0 1 153.463 8.454 L 152.389 8.422 L 152.389 13.578 A 5.472 5.472 0 0 0 152.62 15.619 A 1.187 1.187 0 0 0 153.082 16.167 A 1.751 1.751 0 0 0 153.785 16.274 A 1.308 1.308 0 0 0 154.677 15.893 A 5.059 5.059 0 0 1 155.294 15.388 Q 155.493 15.265 155.81 15.265 Q 156.127 15.265 156.347 15.512 A 0.844 0.844 0 0 1 156.567 16.092 A 1.635 1.635 0 0 1 155.692 17.386 Q 154.816 17.982 153.85 17.982 A 3.285 3.285 0 0 1 151.341 17.107 A 3.23 3.23 0 0 1 150.52 14.803 L 150.52 8.497 Q 150.144 8.529 149.698 8.529 A 1.105 1.105 0 0 1 148.967 8.293 Q 148.683 8.057 148.683 7.675 Q 148.683 7.294 148.967 7.079 A 1.126 1.126 0 0 1 149.666 6.864 A 16.889 16.889 0 0 1 150.509 6.886 Q 150.498 6.531 150.487 6.048 L 150.444 5.103 A 39.725 39.725 0 0 0 150.417 4.265 A 13.885 13.885 0 0 1 150.401 3.781 A 1.039 1.039 0 0 1 150.702 2.965 A 1.087 1.087 0 0 1 151.454 2.696 A 0.989 0.989 0 0 1 152.485 3.889 Z M 187.247 3.889 L 187.15 6.939 L 189.868 6.864 Q 190.502 6.864 190.76 7.095 Q 191.018 7.326 191.018 7.659 A 0.773 0.773 0 0 1 190.728 8.25 A 1.285 1.285 0 0 1 189.852 8.508 A 33.651 33.651 0 0 1 188.225 8.454 L 187.15 8.422 L 187.15 13.578 A 5.472 5.472 0 0 0 187.381 15.619 A 1.187 1.187 0 0 0 187.843 16.167 A 1.751 1.751 0 0 0 188.547 16.274 A 1.308 1.308 0 0 0 189.438 15.893 A 5.059 5.059 0 0 1 190.056 15.388 Q 190.255 15.265 190.572 15.265 Q 190.889 15.265 191.109 15.512 A 0.844 0.844 0 0 1 191.329 16.092 A 1.635 1.635 0 0 1 190.454 17.386 Q 189.578 17.982 188.611 17.982 A 3.285 3.285 0 0 1 186.103 17.107 A 3.23 3.23 0 0 1 185.281 14.803 L 185.281 8.497 Q 184.905 8.529 184.459 8.529 A 1.105 1.105 0 0 1 183.729 8.293 Q 183.444 8.057 183.444 7.675 Q 183.444 7.294 183.729 7.079 A 1.126 1.126 0 0 1 184.427 6.864 A 16.889 16.889 0 0 1 185.271 6.886 Q 185.26 6.531 185.249 6.048 L 185.206 5.103 A 39.725 39.725 0 0 0 185.179 4.265 A 13.885 13.885 0 0 1 185.163 3.781 A 1.039 1.039 0 0 1 185.464 2.965 A 1.087 1.087 0 0 1 186.216 2.696 A 0.989 0.989 0 0 1 187.247 3.889 Z M 135.728 17.821 L 133.708 17.757 Q 133.257 17.757 133.031 17.768 L 132.559 17.789 Q 132.021 17.821 131.613 17.821 A 0.83 0.83 0 0 1 130.571 17.026 Q 130.571 16.64 130.899 16.425 A 1.576 1.576 0 0 1 131.774 16.21 L 132.612 16.21 L 132.612 9.206 Q 132.612 8.562 132.333 8.562 A 1.717 1.717 0 0 0 131.93 8.637 A 2.313 2.313 0 0 1 131.318 8.712 A 0.918 0.918 0 0 1 130.711 8.486 A 0.758 0.758 0 0 1 130.442 7.874 A 1.017 1.017 0 0 1 131.603 6.939 A 6.625 6.625 0 0 0 132.779 6.746 Q 133.235 6.617 133.665 6.617 Q 134.471 6.617 134.471 7.648 L 134.471 16.21 L 135.319 16.21 A 1.04 1.04 0 0 1 136.673 17.059 A 0.692 0.692 0 0 1 136.41 17.59 Q 136.146 17.821 135.728 17.821 Z M 197.946 17.821 L 195.927 17.757 Q 195.476 17.757 195.25 17.768 L 194.777 17.789 Q 194.24 17.821 193.832 17.821 A 0.83 0.83 0 0 1 192.79 17.026 Q 192.79 16.64 193.118 16.425 A 1.576 1.576 0 0 1 193.993 16.21 L 194.831 16.21 L 194.831 9.206 Q 194.831 8.562 194.552 8.562 A 1.717 1.717 0 0 0 194.149 8.637 A 2.313 2.313 0 0 1 193.537 8.712 A 0.918 0.918 0 0 1 192.93 8.486 A 0.758 0.758 0 0 1 192.661 7.874 A 1.017 1.017 0 0 1 193.821 6.939 A 6.625 6.625 0 0 0 194.998 6.746 Q 195.454 6.617 195.884 6.617 Q 196.689 6.617 196.689 7.648 L 196.689 16.21 L 197.538 16.21 A 1.04 1.04 0 0 1 198.892 17.059 A 0.692 0.692 0 0 1 198.628 17.59 Q 198.365 17.821 197.946 17.821 Z M 58.636 8.331 A 5.222 5.222 0 0 1 62.568 6.703 A 5.178 5.178 0 0 1 66.424 8.212 Q 67.912 9.722 67.912 12.241 A 5.708 5.708 0 0 1 66.36 16.371 A 5.265 5.265 0 0 1 62.396 17.982 A 5.042 5.042 0 0 1 58.529 16.425 Q 57.073 14.867 57.073 12.413 A 5.658 5.658 0 0 1 58.636 8.331 Z M 58.942 12.294 A 4.099 4.099 0 0 0 59.958 15.179 A 3.352 3.352 0 0 0 62.541 16.285 Q 64.109 16.285 65.071 15.243 Q 66.032 14.201 66.032 12.461 Q 66.032 9.571 63.98 8.69 A 3.837 3.837 0 0 0 62.455 8.4 A 3.269 3.269 0 0 0 59.888 9.458 Q 58.942 10.517 58.942 12.294 Z M 201.464 8.331 A 5.222 5.222 0 0 1 205.396 6.703 A 5.178 5.178 0 0 1 209.252 8.212 Q 210.74 9.722 210.74 12.241 A 5.708 5.708 0 0 1 209.188 16.371 A 5.265 5.265 0 0 1 205.224 17.982 A 5.042 5.042 0 0 1 201.357 16.425 Q 199.901 14.867 199.901 12.413 A 5.658 5.658 0 0 1 201.464 8.331 Z M 201.771 12.294 A 4.099 4.099 0 0 0 202.786 15.179 A 3.352 3.352 0 0 0 205.369 16.285 Q 206.938 16.285 207.899 15.243 Q 208.86 14.201 208.86 12.461 Q 208.86 9.571 206.809 8.69 A 3.837 3.837 0 0 0 205.283 8.4 A 3.269 3.269 0 0 0 202.716 9.458 Q 201.771 10.517 201.771 12.294 Z M 134.868 2.933 Q 134.868 3.975 133.987 4.286 Q 133.74 4.372 133.289 4.372 Q 132.838 4.372 132.462 4.018 Q 132.086 3.663 132.086 3.094 Q 132.086 2.524 132.478 2.148 A 1.428 1.428 0 0 1 133.509 1.772 A 1.401 1.401 0 0 1 134.508 2.111 A 1.086 1.086 0 0 1 134.868 2.933 Z M 197.087 2.933 Q 197.087 3.975 196.206 4.286 Q 195.959 4.372 195.508 4.372 Q 195.057 4.372 194.681 4.018 Q 194.305 3.663 194.305 3.094 Q 194.305 2.524 194.697 2.148 A 1.428 1.428 0 0 1 195.728 1.772 A 1.401 1.401 0 0 1 196.727 2.111 A 1.086 1.086 0 0 1 197.087 2.933 Z"/></g></svg>